# xmcd
#
# Track frame offsets:
#	150
#	15528
#	29541
#	43079
#	57661
#	74070
#	90427
#	109526
#	124077
#	138160
#	159889
#
# Disc length: 2411 seconds
#
# Revision: 1
# Processed by: cddbd v1.5.2PL0 Copyright (c) Steve Scherf et al.
# Submitted via: audiograbber 1.83.01
#
DISCID=9009690b
DTITLE=Various Artist - Chicago Blues-A Living History Disk 2\\2
DYEAR=2009
DGENRE=Blues
TTITLE0=John Primer - Sugar Sweet
TTITLE1=Jimmy Reed - Can't Stand To See You Go
TTITLE2=Billy Boy Arnold - I Wish You Would
TTITLE3=John Primer - Your Imagination
TTITLE4=Lurrie Bell - My Love Will Never Die
TTITLE5=Billy Branch - Hoodoo Man Blues
TTITLE6=Billy Flynn - Hooking It
TTITLE7=Mike Avery - Out Of Bad Luck
TTITLE8=Billy Branch - One More Mile
TTITLE9=Carlos Johnson - The Healer
TTITLE10=Lurrie Bell\\Carlos Johnson - Damn Right, I've Got The Blues
EXTD=
EXTT0=
EXTT1=
EXTT2=
EXTT3=
EXTT4=
EXTT5=
EXTT6=
EXTT7=
EXTT8=
EXTT9=
EXTT10=
PLAYORDER=
